<?xml version="1.0" encoding="utf-8"?>
<!-- Generator: Adobe Illustrator 27.0.1, SVG Export Plug-In . SVG Version: 6.00 Build 0)  -->
<svg version="1.1" id="Layer_1" xmlns="http://www.w3.org/2000/svg" xmlns:xlink="http://www.w3.org/1999/xlink" x="0px" y="0px"
	 viewBox="0 0 365.8 362.2" style="enable-background:new 0 0 365.8 362.2;" xml:space="preserve">
<style type="text/css">
	.st0{fill:#323232;}
</style>
<path class="st0" d="M349.2,7.2h-259c-5.8,0-10.5,4.7-10.5,10.5v59.5H20.2c-5.8,0-10.5,4.7-10.5,10.5v259c0,5.8,4.7,10.5,10.5,10.5
	h259c5.8,0,10.5-4.7,10.5-10.5v-59.5h59.5c5.8,0,10.5-4.7,10.5-10.5v-259C359.7,11.9,355,7.2,349.2,7.2z M268.7,336.2h-238v-238h238
	V336.2z M338.7,266.2h-49V87.7c0-5.8-4.7-10.5-10.5-10.5H100.7v-49h238V266.2z"/>
</svg>
